# xmcd
#
# Track frame offsets:
#	150
#	26105
#	40462
#	54117
#	75845
#	93842
#	106525
#	125867
#	143327
#	160225
#	176257
#
# Disc length: 2627
#
# Revision: 1
# Processed by: cddbd v1.5.1PL0 Copyright (c) Steve Scherf et al.
# Submitted via: dBpowerAMP V4.0
# Normalized: r0:TRMNUM
#
DISCID=770a410b
DTITLE=Micco Vuorio - La Mia Grande Adventura
DYEAR=1900
DGENRE=Blues
TTITLE0=Lännen muukalainen
TTITLE1=Todellinen rakkaus
TTITLE2=Pikku Lauri
TTITLE3=Ja karavaani kulkee vaan
TTITLE4=Pienen tytön haaveet
TTITLE5=Miljoona kitaraa
TTITLE6=Hei hei näkemiin
TTITLE7=Tuulen tyttö
TTITLE8=Makee mesta rento fiilis
TTITLE9=Rakkauden kellot
TTITLE10=Outoo
EXTD=
EXTT0=
EXTT1=
EXTT2=
EXTT3=
EXTT4=
EXTT5=
EXTT6=
EXTT7=
EXTT8=
EXTT9=
EXTT10=
PLAYORDER=
